<?xml version="1.0" encoding="UTF-8"?>
<svg xmlns="http://www.w3.org/2000/svg" xmlns:xlink="http://www.w3.org/1999/xlink" width="64px" height="64px" viewBox="0 0 64 64" version="1.1">
<g id="surface1">
<path style=" stroke:white;fill-rule:nonzero;fill:rgb(100%,100%,100%);fill-opacity:1;" d="M 63.847656 20.957031 L 57.140625 9.664062 C 57.136719 9.660156 57.128906 9.65625 57.125 9.652344 C 57.050781 9.53125 56.953125 9.429688 56.839844 9.34375 C 56.820312 9.332031 56.800781 9.316406 56.78125 9.304688 C 56.761719 9.292969 56.746094 9.277344 56.722656 9.261719 L 45.027344 2.871094 C 44.628906 2.65625 44.140625 2.707031 43.792969 3.003906 L 6.367188 35.132812 C 6.359375 35.136719 6.355469 35.148438 6.347656 35.152344 C 6.332031 35.167969 6.320312 35.183594 6.308594 35.195312 C 6.226562 35.28125 6.160156 35.375 6.109375 35.476562 C 6.101562 35.488281 6.089844 35.496094 6.082031 35.511719 L 0.0976562 48.867188 C -0.140625 49.390625 0.0742188 50.011719 0.585938 50.277344 L 21.261719 61.136719 C 21.277344 61.144531 21.296875 61.148438 21.316406 61.15625 C 21.328125 61.164062 21.339844 61.171875 21.355469 61.179688 C 21.371094 61.1875 21.386719 61.183594 21.402344 61.1875 C 21.523438 61.230469 21.644531 61.261719 21.769531 61.261719 C 21.890625 61.261719 22.011719 61.234375 22.128906 61.191406 C 22.164062 61.179688 22.191406 61.164062 22.226562 61.148438 C 22.269531 61.128906 22.3125 61.117188 22.351562 61.09375 C 22.394531 61.066406 22.429688 61.027344 22.46875 60.996094 C 22.484375 60.980469 22.503906 60.976562 22.519531 60.964844 L 63.65625 22.3125 C 64.027344 21.960938 64.109375 21.398438 63.847656 20.957031 Z M 44.644531 5.152344 L 54.328125 10.445312 L 20.871094 40.699219 L 9.121094 35.648438 Z M 2.507812 48.824219 L 7.636719 37.390625 L 20.019531 42.710938 L 20.605469 58.324219 Z M 22.773438 57.730469 L 22.195312 42.445312 L 40.269531 26.101562 L 55.945312 11.925781 L 61.523438 21.320312 Z M 22.773438 57.730469 "/>
</g>
</svg>
